<?xml version="1.0" encoding="UTF-8" standalone="no"?>
<!DOCTYPE svg PUBLIC "-//W3C//DTD SVG 1.1//EN" "http://www.w3.org/Graphics/SVG/1.1/DTD/svg11.dtd">
<svg width="100%" height="100%" viewBox="0 0 2049 1201" version="1.1" xmlns="http://www.w3.org/2000/svg" xmlns:xlink="http://www.w3.org/1999/xlink" xml:space="preserve" xmlns:serif="http://www.serif.com/" style="fill-rule:evenodd;clip-rule:evenodd;stroke-linejoin:round;stroke-miterlimit:2;">
    <g transform="matrix(1,0,0,1,0.0052,-0.00426)">
        <g transform="matrix(1,0,0,1,0,-3586)">
            <g id="TH_Logo_Vertical_W" transform="matrix(6.34056,0,0,2.92683,1870.46,4106.98)">
                <clipPath id="_clip1">
                    <rect x="-291.215" y="-168.092" width="312.275" height="390.525"/>
                </clipPath>
                <g clip-path="url(#_clip1)">
                    <rect x="-295" y="-178" width="323" height="410" style="fill:none;"/>
                    <g transform="matrix(1.13046e-16,-3.99951,1.84619,2.44899e-16,-1856.77,4915.41)">
                        <g>
                            <g transform="matrix(1,0,0,1,1173.22,1017)">
                                <text x="0px" y="0px" style="font-family:'Calibri-Light', 'Calibri', sans-serif;font-weight:300;font-size:20.833px;fill:white;">TE</text>
                            </g>
                            <g transform="matrix(1,0,0,1,1193.27,1017)">
                                <text x="0px" y="0px" style="font-family:'Calibri-Light', 'Calibri', sans-serif;font-weight:300;font-size:20.833px;fill:white;">CHHOME</text>
                            </g>
                        </g>
                    </g>
                    <g transform="matrix(1.92313,0,0,4.16618,-2498.01,-3909.74)">
                        <path d="M1237.42,918.917L1191.42,918.917L1191.42,991.852L1170.58,991.852L1170.58,918.917L1147.5,918.917L1147.5,898.083L1237.42,898.083L1237.42,918.917ZM1286.42,991.852L1265.58,991.852L1265.58,956.769L1237.42,956.769L1237.42,991.852L1216.58,991.852L1216.58,925L1237.42,925L1237.42,935.935L1265.58,935.935L1265.58,898L1286.42,898L1286.42,991.852Z" style="fill:white;"/>
                    </g>
                </g>
            </g>
        </g>
    </g>
</svg>
